<svg class="diagram-root" style="background: #f5f6f6" xmlns="http://www.w3.org/2000/svg" xmlns:xlink="http://www.w3.org/1999/xlink"><style>.diagram-root { font-family: "Helvetica Neue", sans-serif; font-size: 12px; } .t { overflow: visible; } .t-bg { y: 40; fill: #fff;   } .th { fill: #005aa0;   } .tht { fill: #fff; font-size: 14px;  } .tf { fill: #323c46; overflow: visible; } .tf.pk { fill: #005aa0; font-weight: bold; } .tf.fk { font-weight: bold; } .ty { fill: #adb1b5; font-weight: normal; text-anchor: end; } .r { fill: transparent; stroke: #c3c3c3; stroke-width: 1; } .l { stroke: 1; } .i { fill: #c2c7ce; stroke: #c2c7ce; } .i.ix { fill: #afb3b6; stroke: #000; } .fa { fill: transparent; overflow: visible; } .fa .bg.hover { fill: #f7f7f7; } .c { cy: 12; r: 4; stroke: #d2d2dc; fill: #d2d2dc; } .hr { fill: transparent; stroke: #323c46; stroke-opacity: 0.035; stroke-width: 13; } .dc { stroke: #fa5a3c; fill: #fa5a3c; } .x { stroke: white; stroke-width: 1; } .hl .th { fill: #1b9bff; } .hl .tht {  } .fhl .bg { fill: #e7f4ff; } .fhls .bg {  } .r.hl { stroke: #1b9bff; } .dim { opacity: 0.25; }</style><g class="drawing-wrapper" transform="translate(11.829999999999998, 273.5) scale(1,1)"><g class="rs"><path d="M 161.55 -186.5 m -1, 0 a 1,1 0 1,0 2,0 a 1,1 0 1,0 -2,0 M 161.55 -186.5 m -0.5, 0 a 0.5,0.5 0 1,0 1,0 a 0.5,0.5 0 1,0 -1,0  M161.55 -186.5 L161.55 -186.5 173.55 -186.5 M 161.55 -180.5 m -1, 0 a 1,1 0 1,0 2,0 a 1,1 0 1,0 -2,0 M 161.55 -180.5 m -0.5, 0 a 0.5,0.5 0 1,0 1,0 a 0.5,0.5 0 1,0 -1,0  M161.55 -180.5 L161.55 -180.5 168.55 -186.5 161.55 -192.5 M 161.55 -192.5 m -1, 0 a 1,1 0 1,0 2,0 a 1,1 0 1,0 -2,0 M 161.55 -192.5 m -0.5, 0 a 0.5,0.5 0 1,0 1,0 a 0.5,0.5 0 1,0 -1,0  M173.55 -186.5 Q 226.16 -186.5, 278.77 -36.75 T 384 113 M 396 113 m -1, 0 a 1,1 0 1,0 2,0 a 1,1 0 1,0 -2,0 M 396 113 m -0.5, 0 a 0.5,0.5 0 1,0 1,0 a 0.5,0.5 0 1,0 -1,0  M396 113 L396 113 384 113 M390 119 L390 119 390 107" id="h3947959389" class="r"></path><path d="M 178.77 -0.5 m -1, 0 a 1,1 0 1,0 2,0 a 1,1 0 1,0 -2,0 M 178.77 -0.5 m -0.5, 0 a 0.5,0.5 0 1,0 1,0 a 0.5,0.5 0 1,0 -1,0  M178.77 -0.5 L178.77 -0.5 190.77 -0.5 M 178.77 5.5 m -1, 0 a 1,1 0 1,0 2,0 a 1,1 0 1,0 -2,0 M 178.77 5.5 m -0.5, 0 a 0.5,0.5 0 1,0 1,0 a 0.5,0.5 0 1,0 -1,0  M178.77 5.5 L178.77 5.5 185.77 -0.5 178.77 -6.5 M 178.77 -6.5 m -1, 0 a 1,1 0 1,0 2,0 a 1,1 0 1,0 -2,0 M 178.77 -6.5 m -0.5, 0 a 0.5,0.5 0 1,0 1,0 a 0.5,0.5 0 1,0 -1,0  M190.77 -0.5 C 470.274 -0.5, 384.21 172.67000000000002, 334.21 172.67000000000002 M 322.21 172.67000000000002 m -1, 0 a 1,1 0 1,0 2,0 a 1,1 0 1,0 -2,0 M 322.21 172.67000000000002 m -0.5, 0 a 0.5,0.5 0 1,0 1,0 a 0.5,0.5 0 1,0 -1,0  M322.21 172.67000000000002 L322.21 172.67000000000002 334.21 172.67000000000002 M328.21 178.67000000000002 L328.21 178.67000000000002 328.21 166.67000000000002" id="h2335426256" class="r"></path><path d="M 178.77 24.5 m -1, 0 a 1,1 0 1,0 2,0 a 1,1 0 1,0 -2,0 M 178.77 24.5 m -0.5, 0 a 0.5,0.5 0 1,0 1,0 a 0.5,0.5 0 1,0 -1,0  M178.77 24.5 L178.77 24.5 190.77 24.5 M 178.77 30.5 m -1, 0 a 1,1 0 1,0 2,0 a 1,1 0 1,0 -2,0 M 178.77 30.5 m -0.5, 0 a 0.5,0.5 0 1,0 1,0 a 0.5,0.5 0 1,0 -1,0  M178.77 30.5 L178.77 30.5 185.77 24.5 178.77 18.5 M 178.77 18.5 m -1, 0 a 1,1 0 1,0 2,0 a 1,1 0 1,0 -2,0 M 178.77 18.5 m -0.5, 0 a 0.5,0.5 0 1,0 1,0 a 0.5,0.5 0 1,0 -1,0  M190.77 24.5 C 240.77 24.5, 251.102 -186.5, 173.55 -186.5 M 161.55 -186.5 m -1, 0 a 1,1 0 1,0 2,0 a 1,1 0 1,0 -2,0 M 161.55 -186.5 m -0.5, 0 a 0.5,0.5 0 1,0 1,0 a 0.5,0.5 0 1,0 -1,0  M161.55 -186.5 L161.55 -186.5 173.55 -186.5 M167.55 -180.5 L167.55 -180.5 167.55 -192.5" id="h1409512493" class="r"></path><path d="M 545.39 113 m -1, 0 a 1,1 0 1,0 2,0 a 1,1 0 1,0 -2,0 M 545.39 113 m -0.5, 0 a 0.5,0.5 0 1,0 1,0 a 0.5,0.5 0 1,0 -1,0  M545.39 113 L545.39 113 557.39 113 M 545.39 119 m -1, 0 a 1,1 0 1,0 2,0 a 1,1 0 1,0 -2,0 M 545.39 119 m -0.5, 0 a 0.5,0.5 0 1,0 1,0 a 0.5,0.5 0 1,0 -1,0  M545.39 119 L545.39 119 552.39 113 545.39 107 M 545.39 107 m -1, 0 a 1,1 0 1,0 2,0 a 1,1 0 1,0 -2,0 M 545.39 107 m -0.5, 0 a 0.5,0.5 0 1,0 1,0 a 0.5,0.5 0 1,0 -1,0  M557.39 113 C 626.35 113, 619.24 -150.29, 569.24 -150.29 M 557.24 -150.29 m -1, 0 a 1,1 0 1,0 2,0 a 1,1 0 1,0 -2,0 M 557.24 -150.29 m -0.5, 0 a 0.5,0.5 0 1,0 1,0 a 0.5,0.5 0 1,0 -1,0  M557.24 -150.29 L557.24 -150.29 569.24 -150.29 M563.24 -144.29 L563.24 -144.29 563.24 -156.29" id="h2871697839" class="r"></path><path d="M 396 138 m -1, 0 a 1,1 0 1,0 2,0 a 1,1 0 1,0 -2,0 M 396 138 m -0.5, 0 a 0.5,0.5 0 1,0 1,0 a 0.5,0.5 0 1,0 -1,0  M396 138 L396 138 384 138 M 396 144 m -1, 0 a 1,1 0 1,0 2,0 a 1,1 0 1,0 -2,0 M 396 144 m -0.5, 0 a 0.5,0.5 0 1,0 1,0 a 0.5,0.5 0 1,0 -1,0  M396 144 L396 144 389 138 396 132 M 396 132 m -1, 0 a 1,1 0 1,0 2,0 a 1,1 0 1,0 -2,0 M 396 132 m -0.5, 0 a 0.5,0.5 0 1,0 1,0 a 0.5,0.5 0 1,0 -1,0  M384 138 C 18.52800000000002 138, 136.83 172.67000000000002, 186.83 172.67000000000002 M 198.83 172.67000000000002 m -1, 0 a 1,1 0 1,0 2,0 a 1,1 0 1,0 -2,0 M 198.83 172.67000000000002 m -0.5, 0 a 0.5,0.5 0 1,0 1,0 a 0.5,0.5 0 1,0 -1,0  M198.83 172.67000000000002 L198.83 172.67000000000002 186.83 172.67000000000002 M192.83 178.67000000000002 L192.83 178.67000000000002 192.83 166.67000000000002" id="h241476906" class="r"></path><path d="M 211.88 -179.12 m -1, 0 a 1,1 0 1,0 2,0 a 1,1 0 1,0 -2,0 M 211.88 -179.12 m -0.5, 0 a 0.5,0.5 0 1,0 1,0 a 0.5,0.5 0 1,0 -1,0  M211.88 -179.12 L211.88 -179.12 199.88 -179.12 M 211.88 -173.12 m -1, 0 a 1,1 0 1,0 2,0 a 1,1 0 1,0 -2,0 M 211.88 -173.12 m -0.5, 0 a 0.5,0.5 0 1,0 1,0 a 0.5,0.5 0 1,0 -1,0  M211.88 -173.12 L211.88 -173.12 204.88 -179.12 211.88 -185.12 M 211.88 -185.12 m -1, 0 a 1,1 0 1,0 2,0 a 1,1 0 1,0 -2,0 M 211.88 -185.12 m -0.5, 0 a 0.5,0.5 0 1,0 1,0 a 0.5,0.5 0 1,0 -1,0  M199.88 -179.12 C 149.88 -179.12, 39.40799999999996 113, 384 113 M 396 113 m -1, 0 a 1,1 0 1,0 2,0 a 1,1 0 1,0 -2,0 M 396 113 m -0.5, 0 a 0.5,0.5 0 1,0 1,0 a 0.5,0.5 0 1,0 -1,0  M396 113 L396 113 384 113 M390 119 L390 119 390 107" id="h1301190635" class="r"></path></g><g class="hrs"></g><g class="ts"><svg width="151.38" height="100" x="10.17" y="-243.5" id="h2876837712" class="t"><rect height="40" width="151.38" class="th"></rect><text x="13" y="25" class="tht">Department</text><rect height="60" width="151.38" class="t-bg"></rect><text x="13" y="61" class="tf pk">Dept_no<tspan x="138.38" class="ty">varchar</tspan></text><path d="M7,14A2,2 0 0,1 5,12A2,2 0 0,1 7,10A2,2 0 0,1 9,12A2,2 0 0,1 7,14M12.65,10C11.83,7.67 9.61,6 7, 6A6, 6 0 0, 0 1, 12A6, 6 0 0, 0 7, 18C9.61, 18 11.83, 16.33 12.65, 14H17V18H21V14H23V10H12.65Z" class="i pk" transform="translate(78.366328125, 48) scale(0.65)"></path><text x="13" y="86" class="tf">Dept_name<tspan x="138.38" class="ty">varchar</tspan></text></svg><svg width="149.39" height="150" x="29.38" y="-57.5" id="h1090417462" class="t"><rect height="40" width="149.39" class="th"></rect><text x="13" y="25" class="tht">dept_emp</text><rect height="110" width="149.39" class="t-bg"></rect><text x="13" y="61" class="tf pk">emp_no<tspan x="136.39" class="ty">int</tspan></text><path d="M7,14A2,2 0 0,1 5,12A2,2 0 0,1 7,10A2,2 0 0,1 9,12A2,2 0 0,1 7,14M12.65,10C11.83,7.67 9.61,6 7, 6A6, 6 0 0, 0 1, 12A6, 6 0 0, 0 7, 18C9.61, 18 11.83, 16.33 12.65, 14H17V18H21V14H23V10H12.65Z" class="i pk" transform="translate(103.71617187499999, 48) scale(0.65)"></path><text x="13" y="86" class="tf pk">dept_no<tspan x="136.39" class="ty">varchar</tspan></text><path d="M7,14A2,2 0 0,1 5,12A2,2 0 0,1 7,10A2,2 0 0,1 9,12A2,2 0 0,1 7,14M12.65,10C11.83,7.67 9.61,6 7, 6A6, 6 0 0, 0 1, 12A6, 6 0 0, 0 7, 18C9.61, 18 11.83, 16.33 12.65, 14H17V18H21V14H23V10H12.65Z" class="i pk" transform="translate(76.37632812499999, 73) scale(0.65)"></path><text x="13" y="111" class="tf">from_date<tspan x="136.39" class="ty">date</tspan></text><text x="13" y="136" class="tf">to_date<tspan x="136.39" class="ty">date</tspan></text></svg><svg width="149.39" height="150" x="396" y="56" id="h1676682957" class="t"><rect height="40" width="149.39" class="th"></rect><text x="13" y="25" class="tht">dept_manager</text><rect height="110" width="149.39" class="t-bg"></rect><text x="13" y="61" class="tf pk">dept_no<tspan x="136.39" class="ty">varchar</tspan></text><path d="M7,14A2,2 0 0,1 5,12A2,2 0 0,1 7,10A2,2 0 0,1 9,12A2,2 0 0,1 7,14M12.65,10C11.83,7.67 9.61,6 7, 6A6, 6 0 0, 0 1, 12A6, 6 0 0, 0 7, 18C9.61, 18 11.83, 16.33 12.65, 14H17V18H21V14H23V10H12.65Z" class="i pk" transform="translate(76.37632812499999, 48) scale(0.65)"></path><text x="13" y="86" class="tf pk">emp_no<tspan x="136.39" class="ty">int</tspan></text><path d="M7,14A2,2 0 0,1 5,12A2,2 0 0,1 7,10A2,2 0 0,1 9,12A2,2 0 0,1 7,14M12.65,10C11.83,7.67 9.61,6 7, 6A6, 6 0 0, 0 1, 12A6, 6 0 0, 0 7, 18C9.61, 18 11.83, 16.33 12.65, 14H17V18H21V14H23V10H12.65Z" class="i pk" transform="translate(103.71617187499999, 73) scale(0.65)"></path><text x="13" y="111" class="tf">from_date<tspan x="136.39" class="ty">date</tspan></text><text x="13" y="136" class="tf">to_date<tspan x="136.39" class="ty">date</tspan></text></svg><svg width="142.04" height="200" x="211.88" y="-236.12" id="h1639608377" class="t"><rect height="40" width="142.04" class="th"></rect><text x="13" y="25" class="tht">employees</text><rect height="160" width="142.04" class="t-bg"></rect><text x="13" y="61" class="tf pk">emp_no<tspan x="129.04" class="ty">int</tspan></text><path d="M7,14A2,2 0 0,1 5,12A2,2 0 0,1 7,10A2,2 0 0,1 9,12A2,2 0 0,1 7,14M12.65,10C11.83,7.67 9.61,6 7, 6A6, 6 0 0, 0 1, 12A6, 6 0 0, 0 7, 18C9.61, 18 11.83, 16.33 12.65, 14H17V18H21V14H23V10H12.65Z" class="i pk" transform="translate(96.36617187499999, 48) scale(0.65)"></path><text x="13" y="86" class="tf">birth_date<tspan x="129.04" class="ty">date</tspan></text><text x="13" y="111" class="tf">first_name<tspan x="129.04" class="ty">varchar</tspan></text><text x="13" y="136" class="tf">last_name<tspan x="129.04" class="ty">varchar</tspan></text><text x="13" y="161" class="tf">gender<tspan x="129.04" class="ty">varchar</tspan></text><text x="13" y="186" class="tf">hire_date<tspan x="129.04" class="ty">date</tspan></text></svg><svg width="123.38" height="150" x="433.86" y="-207.29" id="h2472833127" class="t"><rect height="40" width="123.38" class="th"></rect><text x="13" y="25" class="tht">salaries</text><rect height="110" width="123.38" class="t-bg"></rect><text x="13" y="61" class="tf pk">emp_no<tspan x="110.38" class="ty">int</tspan></text><path d="M7,14A2,2 0 0,1 5,12A2,2 0 0,1 7,10A2,2 0 0,1 9,12A2,2 0 0,1 7,14M12.65,10C11.83,7.67 9.61,6 7, 6A6, 6 0 0, 0 1, 12A6, 6 0 0, 0 7, 18C9.61, 18 11.83, 16.33 12.65, 14H17V18H21V14H23V10H12.65Z" class="i pk" transform="translate(77.706171875, 48) scale(0.65)"></path><text x="13" y="86" class="tf">salary<tspan x="110.38" class="ty">int</tspan></text><text x="13" y="111" class="tf">from_date<tspan x="110.38" class="ty">date</tspan></text><text x="13" y="136" class="tf">to_date<tspan x="110.38" class="ty">date</tspan></text></svg><svg width="123.38" height="150" x="198.83" y="115.67" id="h311790747" class="t"><rect height="40" width="123.38" class="th"></rect><text x="13" y="25" class="tht">titles</text><rect height="110" width="123.38" class="t-bg"></rect><text x="13" y="61" class="tf pk">emp_no<tspan x="110.38" class="ty">int</tspan></text><path d="M7,14A2,2 0 0,1 5,12A2,2 0 0,1 7,10A2,2 0 0,1 9,12A2,2 0 0,1 7,14M12.65,10C11.83,7.67 9.61,6 7, 6A6, 6 0 0, 0 1, 12A6, 6 0 0, 0 7, 18C9.61, 18 11.83, 16.33 12.65, 14H17V18H21V14H23V10H12.65Z" class="i pk" transform="translate(77.706171875, 48) scale(0.65)"></path><text x="13" y="86" class="tf">title<tspan x="110.38" class="ty">varchar</tspan></text><text x="13" y="111" class="tf">from_date<tspan x="110.38" class="ty">date</tspan></text><text x="13" y="136" class="tf">to_date<tspan x="110.38" class="ty">date</tspan></text></svg></g></g><text class="qdbd-link" x="10" y="20">www.quickdatabasediagrams.com</text></svg>